<svg xmlns:xlink="http://www.w3.org/1999/xlink" xmlns="http://www.w3.org/2000/svg" width="32" height="27.840000000000003" viewBox="0 0 200 174" class="css-1j8o68f"><defs id="SvgjsDefs21986"></defs><g id="SvgjsG21987" featurekey="nameContainer" transform="matrix(1,0,0,1,0,0)" fill="#02FDD8"><rect y="0" height="1" width="1" opacity="0" fill="#02FDD8"></rect><rect y="169" width="200" height="5" fill="#02FDD8"></rect></g><g id="SvgjsG21988" featurekey="nameFeature-0" transform="matrix(4.3546426386997465,0,0,4.3546426386997465,-0.00003426151444365779,-17.837124497954605)" fill="#FD2055"><path d="M6.528 40.031992 l-0.031992 0 l-5.92 -0.031992 c-0.32 0 -0.576 -0.25602 -0.576 -0.576 l0 -30.816 c0 -0.32 0.25602 -0.576 0.576 -0.576 l5.952 0 c0.32 0 0.544 0.25602 0.544 0.576 l0 14.432 c0 2.112 0.28801 2.688 2.368 2.688 l2.016 0 c0.32 0 0.57596 0.25598 0.57596 0.57596 l0 12.544 l4.768 0 l0 -29.664 l-4.768 0 l0 13.376 c0 0.32 -0.25598 0.544 -0.57596 0.544 s-0.576 -0.22398 -0.576 -0.544 l0 -13.952 c0 -0.32 0.25602 -0.576 0.576 -0.576 l5.92 0 c0.32 0 0.60796 0.25602 0.60796 0.576 l0 30.816 c0 0.32 -0.28797 0.576 -0.60796 0.576 l-5.92 0 c-0.32 0 -0.576 -0.25602 -0.576 -0.576 l0 -12.544 l-1.44 0 c-2.944 0 -3.488 -1.344 -3.488 -3.84 l0 -13.856 l-4.8 0 l0 29.664 l4.8 0.031992 l0 -9.568 c0 -0.32 0.25602 -0.57596 0.576 -0.57596 s0.544 0.25598 0.544 0.57596 l0 10.144 c0 0.16 -0.063984 0.32 -0.16 0.41596 c-0.095976 0.096016 -0.22398 0.16 -0.38398 0.16 z M45.352000000000004 8 c0.32 0 0.576 0.25602 0.576 0.576 l0 30.848 c0 0.32 -0.25602 0.576 -0.576 0.576 l-5.952 0 c-0.32 0 -0.576 -0.25602 -0.576 -0.576 l0 -10.912 l0 -0.67199 c0 -2.272 0.032031 -3.328 -1.12 -4.672 l-10.08 -12.416 c-0.12797 -0.12801 -0.22398 -0.28801 -0.35199 -0.448 c-0.57596 -0.704 -0.928 -1.152 -2.432 -1.152 l-1.728 0 l0 29.696 l4.544 0 l0 -19.296 l0 -0.031992 c0 -0.063984 0 -0.16 0.031992 -0.22398 c0.031992 -0.064024 0.095976 -0.12801 0.16 -0.16 c0.063984 -0.064024 0.16 -0.12801 0.22398 -0.12801 c0.031992 0 0.12801 -0.031992 0.16 -0.031992 c0.064024 0 0.16 0.031992 0.22402 0.063984 c0.063984 0.031992 0.16 0.063984 0.19199 0.12801 l0 0.031992 l5.152 6.336 c0.19199 0.25598 0.16 0.60796 -0.096016 0.8 c-0.25598 0.19199 -0.60796 0.19199 -0.8 -0.064024 l-4.128 -5.12 l0 18.272 c0 0.32 -0.25602 0.576 -0.576 0.576 l-5.664 0 c-0.32 0 -0.576 -0.25602 -0.576 -0.576 l0 -30.848 c0 -0.32 0.25602 -0.576 0.576 -0.576 l2.304 0 c2.048 0 2.624 0.8 3.296 1.6 c0.095976 0.12801 0.22398 0.25602 0.35199 0.38398 l10.112 12.448 c1.376 1.664 1.376 3.072 1.376 5.408 l-0.032031 0.672 l0.032031 10.336 l4.8 0 l0 -29.696 l-1.664 0 c-1.76 0 -1.76 -0.031992 -2.304 0.86404 c-0.448 0.704 -3.328 5.536 -3.36 5.568 c-0.16 0.25602 -0.512 0.35203 -0.768 0.19203 s-0.35199 -0.51204 -0.19199 -0.768 c0.12801 -0.19199 2.912 -4.864 3.36 -5.6 c0.89596 -1.408 1.408 -1.408 3.296 -1.408 l2.208 0 z" fill="#FD2055"></path></g></svg>