<svg xmlns="http://www.w3.org/2000/svg" width="1024" height="1024"><path fill="rgba(140, 140, 140, 0.09)" fill-rule="evenodd" d="M508.5 1023.854c-9.35-.079-22.4-.497-29-.93s-18.3-1.523-26-2.423-20.406-2.716-28.235-4.035-20.204-3.769-27.5-5.443-19.79-4.898-27.765-7.164-20.016-6.077-26.759-8.469-18.318-6.814-25.724-9.827-19.89-8.569-27.741-12.344-20.126-10.145-27.276-14.154-18.479-10.787-25.175-15.064-17.35-11.466-23.675-15.978-17.224-12.881-24.22-18.598-19.136-16.293-26.978-23.502-19.364-18.728-25.605-25.599l-18.197-20.657c-3.768-4.49-11.242-14.015-16.609-21.167s-13.159-18.176-17.316-24.5-10.654-16.711-14.438-23.083-10.302-18.297-14.483-26.5-10.378-21.346-13.77-29.206-8.583-20.93-11.537-29.044-7.41-21.795-9.903-30.402-5.699-20.717-7.126-26.91-3.655-16.907-4.952-23.807S5.233 585.075 4.107 576s-2.511-23.398-3.077-31.83S0 521.263 0 512s.463-23.739 1.029-32.17S2.981 457.075 4.109 448s3.163-22.575 4.523-30 4.043-19.8 5.963-27.5 5.051-19.297 6.961-25.771 5.768-18.174 8.574-26S37.924 318.2 41.214 310.5s9.513-20.975 13.829-29.5 11.32-21.35 15.566-28.5 11.319-18.4 15.719-25 11.939-17.175 16.754-23.5 12.309-15.775 16.654-21 13.106-15.125 19.469-22 17.714-18.083 25.222-24.906 17.797-15.784 22.862-19.913 13.71-10.872 19.21-14.985 15.175-10.94 21.5-15.172 17.35-11.168 24.5-15.412 19.646-11.088 27.768-15.206 20.273-9.885 27-12.815 18.982-7.821 27.232-10.871 21.075-7.367 28.5-9.594 19.8-5.617 27.5-7.534 20.075-4.598 27.5-5.959 20.925-3.396 30-4.523 23.398-2.513 31.83-3.079S502.737 0 512 0s23.739.463 32.17 1.028 22.53 1.919 31.33 3.007 22.293 3.146 29.985 4.573 20.967 4.316 29.5 6.421 22.04 5.856 30.015 8.338 20.35 6.737 27.5 9.457 18.753 7.464 25.785 10.543 18.507 8.51 25.5 12.069 19.009 10.156 26.702 14.658 19.257 11.716 25.698 16.031 17.021 11.856 23.513 16.759 16.077 12.513 21.302 16.912 14.9 13.017 21.5 19.149 16.678 16.191 22.396 22.353 14.915 16.603 20.438 23.203 13.724 16.95 18.225 23 12.015 16.856 16.698 24.013 11.758 18.632 15.721 25.5 10.966 20.137 15.561 29.487 11.26 24.2 14.811 33 8.776 22.901 11.61 31.335 7.326 23.959 9.982 34.5 6.004 25.69 7.44 33.665 3.489 21.475 4.563 30 2.492 24.275 3.15 35c.721 11.742.943 27.656.558 40-.351 11.275-1.109 25.9-1.683 32.5s-2.172 19.875-3.55 29.5-4.065 24.763-5.971 33.641-5.267 22.513-7.468 30.3-5.851 19.649-8.111 26.359a584.45 584.45 0 0 1-8.935 24.329c-2.654 6.671-7.953 18.928-11.776 27.237s-10.845 22.115-15.604 30.679-12.277 21.282-16.705 28.263-11.472 17.417-15.652 23.192-10.946 14.729-15.035 19.897a595.29 595.29 0 0 1-15.39 18.5c-4.376 5.007-13.203 14.435-19.614 20.952s-16.666 16.455-22.786 22.086-16.47 14.507-23 19.727-17.439 13.465-24.243 18.323-18.504 12.616-26 17.238-19.355 11.564-26.352 15.426-19.597 10.193-28 14.069-22.702 9.932-31.777 13.459-23.925 8.676-33 11.443-22.8 6.551-30.5 8.411-20.075 4.494-27.5 5.855-20.925 3.39-30 4.51-23.925 2.5-33 3.069-24.15.969-33.5.89zm195.413-98.099L678.806 892c-5.282-7.425-13.194-19.125-17.582-26s-11.553-18.575-15.921-26-11.358-19.8-15.532-27.5-11.682-22.213-16.685-32.251-12.515-25.788-16.693-35-10.985-24.827-15.126-34.701-11.079-27.198-15.417-38.5l-12.591-33.879c-4.703-13.33-4.703-13.33-9.23-12.674-2.49.361-10.987 1.758-18.881 3.104s-21.17 3.819-29.5 5.496a1348.38 1348.38 0 0 0-32.146 6.997l-32 7.947-29.377 8.169c-14.377 4.171-14.377 4.171-13.794 10.231l2.573 25.56 3.085 35c.602 8.525 1.494 28.316 1.983 43.981s.668 36.589.399 46.5-1.163 28.369-1.985 41.019-2.379 30.2-3.458 39a1058.8 1058.8 0 0 1-4.44 31.5l-2.969 17.625c-.453 1.955.485 2.384 11.717 5.355 6.715 1.777 18.297 4.482 25.738 6.011s20.728 3.753 29.528 4.942 20.95 2.556 27 3.038 24.275.708 40.5.504c17.78-.224 34.983-.997 43.301-1.945 7.59-.865 20.415-2.693 28.5-4.062s21.903-4.267 30.707-6.441 21.854-5.814 29-8.089 18.392-6.18 24.992-8.678 15.918-6.333 20.707-8.523l8.707-3.981zm-402.785-9.76c1.076.004 2.333-1.944 3.709-5.745 1.144-3.162 3.206-9.575 4.581-14.25s3.845-13.9 5.488-20.5 4.106-17.85 5.473-25 3.396-19.075 4.509-26.5 2.696-20.025 3.518-28 2.026-24.85 2.675-37.5 1.009-35.001.8-49.668-.723-27.011-1.143-27.43-5.145.72-10.5 2.531-19.412 7.03-31.237 11.599l-40.5 16.28c-10.45 4.385-29.125 12.561-41.5 18.167s-33.862 15.747-47.75 22.535S134 765.374 134 766.008s2.674 5.054 5.941 9.822 10.155 13.94 15.304 20.382 14.963 17.851 21.809 25.353 18.41 19.066 25.7 25.697 18.095 15.938 24.011 20.681 15.252 11.832 20.746 15.752a500.8 500.8 0 0 0 19.989 13.418c5.5 3.46 14.95 9.122 21 12.583s11.733 6.295 12.628 6.298zm501.879-52.999c1.543-1.099 7.236-5.906 12.65-10.682s14.746-13.663 20.738-19.749 15.667-16.618 21.5-23.404 13.886-16.686 17.895-22 10.609-14.611 14.668-20.661 9.913-15.185 13.01-20.3 8.769-15.297 12.604-22.626 9.408-18.752 12.384-25.382 7.084-16.474 9.129-21.874 3.907-10.727 4.14-11.839c.37-1.768-1.369-2.724-13.9-7.638-7.877-3.089-20.711-7.694-28.52-10.232s-20.858-6.398-29-8.578-20.878-5.313-28.303-6.963-20.025-4.145-28-5.545-21.25-3.438-29.5-4.529-22.425-2.655-31.5-3.476-27.975-1.96-42-2.531-34.05-.766-44.5-.432l-29.759 1.369c-5.917.419-11.031 1.034-11.364 1.367s3.099 7.714 7.628 16.402l15.283 28.302L662.269 686l13.543 22c3.637 5.775 10.808 16.724 15.935 24.33s13.419 19.532 18.427 26.5 13.648 18.52 19.202 25.67 14.417 18.175 19.696 24.5 13.423 15.775 18.099 21 14.021 15.236 20.766 22.247c12.264 12.747 12.264 12.747 15.071 10.749zM56.708 532.455c.994 21.735 2.183 34.345 3.283 42.045s2.937 18.725 4.082 24.5 3.413 15.9 5.042 22.5 4.506 17.175 6.393 23.5 5.425 16.9 7.86 23.5 6.529 16.905 9.098 22.9 7.617 16.795 11.219 24 8.309 16.124 10.459 19.82c3.909 6.72 3.909 6.72 7.739 4.5l18.26-10.89c7.936-4.768 22.09-12.942 31.453-18.163l32.464-17.663c8.492-4.494 24.666-12.687 35.941-18.208l39.5-18.733 33.829-15.13c14.829-6.434 14.829-6.434 14.177-14.934-.358-4.675-1.962-18.991-3.563-31.813s-4.698-34.197-6.882-47.5-5.824-33.411-8.089-44.687-4.423-20.793-4.795-21.152-11.477 2.388-24.677 6.104-37.275 10.018-53.5 14.004-41.425 9.702-56 12.702-38.2 7.423-52.5 9.829l-43.396 6.672-17.396 2.296zm335.504 76.424l33.288-11.898c12.1-4.295 31.9-10.944 44-14.775l40.337-12.274c18.337-5.308 18.337-5.308 17.747-8.262-.325-1.625-2.818-10.452-5.539-19.616l-10.415-36.608L501.163 466l-8.729-35.18c-2.051-8.624-4.044-16.19-4.429-16.812-.477-.771-5.929 1.091-17.102 5.842L434.5 434.788a1616.94 1616.94 0 0 1-41 15.534l-32 11.401c-11 3.83-11 3.83-10.838 7.303.089 1.91 2.662 13.755 5.718 26.322a1900.94 1900.94 0 0 1 10.596 46.728l9.069 46.151 4.455 23.506c.304.88 3.661.062 11.714-2.855zm203.581-61.18c2.039-.304 11.582-2.17 21.207-4.148l31.076-6.06 29.5-4.941L709 528.082c8.525-1.096 24.5-2.889 35.5-3.986s30.125-2.579 42.5-3.295 39.375-1.301 60-1.301c26.304 0 44.964.54 62.5 1.809l37 3.192 16.75 1.975c4.75.593 4.75.593 4.737-16.692-.007-9.506-.659-25.159-1.448-34.784s-2.386-23.8-3.549-31.5-3.435-20.075-5.048-27.5-4.48-19.125-6.37-26-5.759-19.21-8.597-27.411-7.745-21.026-10.904-28.5-9.172-20.339-13.362-28.589-11.282-21.075-15.761-28.5-11.09-17.775-14.692-23-9.476-13.325-13.053-18-10.685-13.45-15.795-19.5-13.348-15.225-18.307-20.389c-9.016-9.389-9.016-9.389-13.485-5.5-2.458 2.139-10.014 9.032-16.792 15.318a1039.31 1039.31 0 0 1-25.322 22.563 1243.27 1243.27 0 0 1-25.5 21.159l-24.5 19.06-23.221 17.076c-6.171 4.422-18.546 12.963-27.5 18.98S661.3 320.201 652.5 325.692l-31 18.769c-8.25 4.832-22.65 12.944-32 18.028s-25.325 13.418-35.5 18.521l-18.849 9.566c-.192.159 1.925 7.631 4.705 16.606l11.489 35.318 12.937 36.5 14.529 37.5 10.651 25.876c2.62 5.87 2.627 5.875 6.33 5.323zM57.75 505.613c.962-.287 9.961-2.364 19.996-4.615l39.905-9.524 41.754-11.051L196 469.864l33.5-10.482 33-11.076 23.853-8.532c7.83-2.991 7.851-3.009 7.23-6.137-.342-1.726-2.888-11.913-5.656-22.638l-10.917-40-12.9-43-14.936-46-14.43-41.5-14.247-38.394-9.92-25.34c-2.183-4.947-2.183-4.947-11.63 3.484-5.196 4.637-13.747 13.115-19.003 18.84S166.78 213.775 162.371 219s-10.909 13.325-14.445 18-10.073 13.9-14.526 20.5-11.273 17.4-15.155 24-10.32 18.525-14.307 26.5-9.244 19.225-11.682 25-6.388 15.728-8.778 22.119-6.394 18.568-8.899 27.061-5.719 20.59-7.142 26.881S64.027 425 63.023 430.5s-2.539 15.625-3.411 22.5-2.041 18.262-2.599 25.304S56 494.49 56 498.622c0 6.687.192 7.456 1.75 6.991zm281.232-86.842c1.385-.213 10.168-3.682 19.518-7.708l32.5-14.539c8.525-3.97 24.275-11.605 35-16.966l34.349-17.785c14.521-7.859 14.836-8.1 14.28-10.911l-4.049-20.618L463.574 293l-6.996-40.5-6.493-41-5.999-42.5-5.472-45-4.153-41c-.912-10.175-2.023-18.887-2.47-19.361s-7.646.575-16.113 2.354c-8.415 1.768-22.843 5.421-32.063 8.119s-22.062 6.879-28.539 9.293S338.325 90.024 332 92.75s-18.022 8.23-25.994 12.232-20.797 11.062-28.5 15.689-19.406 12.195-26.006 16.817-12.398 9.024-12.885 9.783c-.599.935 1.716 7.322 7.179 19.804l15.487 36.425 15.174 38 15.788 42c4.42 12.1 13.113 37.3 19.318 56l18.092 56.829c6.682 22.398 6.858 22.822 9.329 22.442zm179.843-91.481c.922-.324 11.474-7.072 23.449-14.994s31.55-21.755 43.5-30.739 29.152-22.629 38.227-30.323 23.687-20.695 32.471-28.891 22.681-22.089 30.883-30.873 19.425-21.371 24.941-27.971 14.398-17.85 19.738-25l11.419-15.698c1.71-2.698 1.71-2.698-3.121-5.776-2.657-1.693-14.056-7.686-25.331-13.318s-26.376-12.564-33.557-15.405-18.656-7.022-25.5-9.29-18.293-5.676-25.443-7.573-18.4-4.597-25-5.999-17.755-3.435-24.788-4.516-20.309-2.629-29.5-3.44-26.837-1.465-39.212-1.453-26.958.454-32.406.984-10.096 1.153-10.328 1.385.53 8.45 1.694 18.261L475.569 113l5.54 38 6.48 39 7.48 40 8.028 38.5 9.015 38.69c4.323 17.761 5.273 20.607 6.712 20.1z"/></svg>