<svg xmlns:xlink="http://www.w3.org/1999/xlink" xmlns="http://www.w3.org/2000/svg" width="219.74729477611942" height="435.59375" viewBox="0 0 169 335" class="css-1j8o68f"><defs id="SvgjsDefs22266"></defs><g id="SvgjsG22267" featurekey="nameContainer" transform="matrix(1,0,0,1,0,0)" fill="#02FDD8"><rect y="0" height="1" width="1" opacity="0" fill="#02FDD8"></rect><rect y="330" width="169" height="5" fill="#02FDD8"></rect></g><g id="SvgjsG22268" featurekey="nameFeature-0" transform="matrix(9.37499105931181,0,0,9.37499105931181,-0.00007376067756588214,-57.29958457986395)" fill="#FD2055"><path d="M6.528 40.031992 l-0.031992 0 l-5.92 -0.031992 c-0.32 0 -0.576 -0.25602 -0.576 -0.576 l0 -30.816 c0 -0.32 0.25602 -0.576 0.576 -0.576 l5.952 0 c0.32 0 0.544 0.25602 0.544 0.576 l0 14.432 c0 2.112 0.28801 2.688 2.368 2.688 l2.016 0 c0.32 0 0.57596 0.25598 0.57596 0.57596 l0 12.544 l4.768 0 l0 -29.664 l-4.768 0 l0 13.376 c0 0.32 -0.25598 0.544 -0.57596 0.544 s-0.576 -0.22398 -0.576 -0.544 l0 -13.952 c0 -0.32 0.25602 -0.576 0.576 -0.576 l5.92 0 c0.32 0 0.60796 0.25602 0.60796 0.576 l0 30.816 c0 0.32 -0.28797 0.576 -0.60796 0.576 l-5.92 0 c-0.32 0 -0.576 -0.25602 -0.576 -0.576 l0 -12.544 l-1.44 0 c-2.944 0 -3.488 -1.344 -3.488 -3.84 l0 -13.856 l-4.8 0 l0 29.664 l4.8 0.031992 l0 -9.568 c0 -0.32 0.25602 -0.57596 0.576 -0.57596 s0.544 0.25598 0.544 0.57596 l0 10.144 c0 0.16 -0.063984 0.32 -0.16 0.41596 c-0.095976 0.096016 -0.22398 0.16 -0.38398 0.16 z" fill="#FD2055"></path></g></svg>